<?xml version="1.0" encoding="utf-8"?>
<!-- Generator: Adobe Illustrator 25.4.0, SVG Export Plug-In . SVG Version: 6.00 Build 0)  -->
<svg version="1.1" id="Layer_1" xmlns="http://www.w3.org/2000/svg" xmlns:xlink="http://www.w3.org/1999/xlink" x="0px" y="0px"
	 viewBox="0 0 2001.5 2001.5" style="enable-background:new 0 0 2001.5 2001.5;" xml:space="preserve">
<style type="text/css">
	.st0{stroke:#1D1D1B;stroke-width:2;stroke-miterlimit:10;}
</style>
<g id="Lager_2">
	<g id="Lager_1-2">
		<path class="st0" d="M934.9,1724.1h-0.7l-1.1-35.9c-0.2-7.8-4.7-191.5,73.8-272.4c26.1-27,58-40.6,94.8-40.6
			c34.8,0,65.2,13,90.5,38.6c14.8,15.1,27.8,35.1,38.6,59.5c9.2-18.6,20.1-34.7,32.4-47.8c31.1-33.4,70.8-50.3,118.2-50.3
			c38.4,0,72,14.9,97,43.1c32,36.2,50.3,93.8,54.4,171.4c1.7,33.9,0.8,67.8-2.7,101.5l-4,32.6l-24.3,0.3L934.9,1724.1z
			 M935.6,1722.6h566l23-0.3l3.8-31.3c3.5-33.6,4.4-67.5,2.7-101.2c-4-77.3-22.2-134.6-54-170.5c-24.7-27.9-57.8-42.6-95.8-42.6
			c-46.9,0-86.3,16.8-117.1,49.9c-12.5,13.4-23.5,29.8-32.8,48.9l-0.7,1.5l-0.6-1.5c-10.9-24.9-24-45.3-39-60.5
			c-25-25.3-55.1-38.2-89.4-38.2c-36.4,0-67.9,13.5-93.8,40.2c-78,80.5-73.6,263.6-73.3,271.3L935.6,1722.6z M1460.3,1651.2h-193.8
			v-0.8c0.4-16.4,2-49.1,9.1-83.2c8.5-41.3,22.3-72.4,40.8-92.3l0,0c17-18.3,38.2-27.2,65-27.2c18,0,31.2,5.8,42.6,18.6
			c14.6,16.4,25.1,43.4,31.2,80.2c6.5,38.7,6.4,77.8,5.2,103.8L1460.3,1651.2z M1268,1649.7h190.9c1.2-25.9,1.2-64.5-5.2-102.8
			c-6.1-36.5-16.5-63.3-30.9-79.5c-11.1-12.6-23.9-18.1-41.5-18.1c-26.3,0-47.2,8.7-63.9,26.7l0,0c-18.3,19.7-31.9,50.5-40.4,91.6
			C1270.1,1601,1268.4,1633,1268,1649.7z M1195,1651.2h-188.8v-0.8c2-41,11.2-141.2,52.8-184.1c12.2-12.6,25.8-18.5,42.7-18.5
			c15,0,27.3,5.4,38.7,17c18.1,18.3,32.2,49.8,42.1,93.8c8.3,36.8,11.4,73.3,12.6,91.9L1195,1651.2z M1007.7,1649.7h185.7
			c-1.2-18.7-4.3-54.7-12.5-90.8c-9.8-43.6-23.8-74.9-41.7-93c-11.1-11.3-23.1-16.5-37.6-16.5c-16.4,0-29.6,5.7-41.6,18.1
			C1019.1,1509.6,1009.8,1608.3,1007.7,1649.7L1007.7,1649.7z"/>
		<path class="st0" d="M1000.8,2001.5C448.9,2001.5,0,1552.6,0,1000.7S448.9,0,1000.8,0s1000.8,448.9,1000.8,1000.7
			S1552.6,2001.5,1000.8,2001.5z M1000.8,1.5c-551,0-999.2,448.3-999.2,999.2S449.8,2000,1000.8,2000s999.2-448.3,999.2-999.3
			S1551.7,1.5,1000.8,1.5z M1000.8,1928.9c-45.5-0.1-91-3.4-136.1-10.1l-0.6-0.1v-690.3h479.7l0.2,0.1l431.4,282.3l-12.3,18.7
			C1589.1,1779.6,1304.1,1928.9,1000.8,1928.9z M865.5,1917.3c44.8,6.6,90,9.9,135.2,10c302.9,0,587.4-149.1,761.1-398.7l11.4-17.5
			l-430-281.4H865.5V1917.3z M792.2,1904.7l-0.9-0.2c-91.1-21.1-178.4-55.9-259-103.3c-159.1-93.5-287-232.1-367.6-398.1
			c-40.8-84.1-68.4-174-82.1-266.5l-0.1-0.4l0.4-0.3l386.9-276.2V1058h71.1V808.8l0.3-0.2l415.9-296.9v93.2
			c0,199.1,162,361.1,361.1,361.1s361.1-162,361.1-361.1V368.2l1.3,1.4c79.8,85.9,141.8,184.1,184.3,291.9
			c100.9,257,81.9,545.5-51.9,787l-0.4,0.7l-0.7-0.4l-446.9-292.5l-533.3-349l-18.1,8.3l-21.3,12.1L792.2,1904.7z M84.2,1136.8
			c13.6,92.2,41.2,181.8,81.8,265.7c80.4,165.8,208.1,304.1,367,397.5c80.2,47.1,167.1,81.8,257.7,102.9v-1076l22.1-12.5l18.9-8.7
			l0.3,0.2l533.6,349.1h0.9v0.6l445.5,291.5c133.2-241,152-528.7,51.4-785C1821.3,555,1759.8,457.4,1680.7,372v232.9
			c0,199.9-162.7,362.6-362.6,362.6S955.6,804.8,955.6,604.9v-90.3l-413.2,295v249.9h-74.1V862.5L84.2,1136.8z M1233.9,1156.5H864
			v-242l1.2,0.8L1233.9,1156.5z M865.5,1155h363.3L865.5,917.2V1155z M74.2,1054.7l-0.1-1.3c-1-17.6-1.5-35.3-1.5-52.6
			c0-260.1,110.7-510.2,303.7-686l0.2-0.2h580.6v109.7l-0.3,0.2l-415.9,297V546H730v-71.1H280.7V546h189.1v226.2l-0.3,0.2
			L74.2,1054.7z M377.1,316c-192.6,175.6-303,425.1-303,684.7c0,16.8,0.5,34,1.4,51.1l392.8-280.4V547.5H279.2v-74.1h452.4v74.1
			H542.4v171l413.2-295V316H377.1z M1318.2,894.8c-159.9,0-289.9-130.1-289.9-290V314.5h579.9v290.4
			C1608.1,764.8,1478.1,894.8,1318.2,894.8z M1029.7,316v288.9c0,159.1,129.4,288.5,288.4,288.5s288.5-129.3,288.5-288.5V316H1029.7
			z M1536.7,243.4H464.8l1.9-1.4c156.8-110.8,341.5-169.4,534-169.4s377.2,58.6,534,169.4L1536.7,243.4z M469.6,241.9h1062.4
			c-156.2-109.8-339.8-167.8-531.2-167.8S625.7,132.1,469.6,241.9z"/>
		<path class="st0" d="M500.8,1641.8c-100.6,0-182.4-81.8-182.4-182.4v-341.7h74.1v341.8c0.6,59.8,49.5,107.8,109.4,107.3
			c59-0.6,106.7-48.3,107.3-107.3v-341.8h74.1v341.8C683.2,1560,601.4,1641.8,500.8,1641.8z M319.9,1119.2v340.2
			c0,99.8,81.2,180.9,180.9,180.9s180.9-81.2,180.9-180.9v-340.3h-71.1v340.2c-0.6,60.6-50.2,109.3-110.9,108.8
			c-59.8-0.6-108.2-48.9-108.8-108.8v-340.2H319.9z"/>
	</g>
</g>
</svg>
