<?xml version="1.0" encoding="utf-8"?>
<!-- Generator: Adobe Illustrator 25.4.0, SVG Export Plug-In . SVG Version: 6.00 Build 0)  -->
<svg version="1.1" id="Layer_1" xmlns="http://www.w3.org/2000/svg" xmlns:xlink="http://www.w3.org/1999/xlink" x="0px" y="0px"
	 viewBox="0 0 2001.5 2001.5" style="enable-background:new 0 0 2001.5 2001.5;" xml:space="preserve">
<style type="text/css">
	.st0{stroke:#000000;stroke-width:2;stroke-miterlimit:10;}
</style>
<g id="Lager_2">
	<g id="Lager_1-2">
		<path class="st0" d="M935.2,1719.2h-0.7l-1.1-35.7c-0.2-7.7-4.7-190.3,73.3-270.6c25.9-26.8,57.6-40.4,94.2-40.4
			c34.6,0,64.8,12.9,89.9,38.4c14.7,15,27.6,34.8,38.4,59.1c9.2-18.5,20-34.4,32.1-47.5c30.9-33.2,70.4-50,117.4-50
			c38.2,0,71.5,14.8,96.4,42.8c31.8,35.9,50,93.2,54,170.3c1.7,33.6,0.8,67.3-2.7,100.8l-4,32.4l-24.2,0.3L935.2,1719.2z
			 M935.9,1717.7h562.3l22.8-0.3l3.8-31.1c3.5-33.4,4.4-67,2.7-100.6c-4-76.8-22.1-133.8-53.6-169.4c-24.5-27.7-57.5-42.3-95.2-42.3
			c-46.6,0-85.7,16.7-116.3,49.5c-12.4,13.3-23.4,29.6-32.6,48.6l-0.7,1.5l-0.6-1.5c-10.8-24.8-23.8-45-38.7-60.1
			c-24.8-25.2-54.7-37.9-88.8-37.9c-36.1,0-67.5,13.4-93.1,39.9c-77.5,79.9-73.1,261.9-72.9,269.6L935.9,1717.7z M1457.1,1646.7
			h-192.6v-0.8c0.4-16.3,2-48.8,9-82.6c8.5-41.1,22.1-71.9,40.5-91.7l0,0c16.9-18.2,38-27,64.6-27c17.9,0,31,5.7,42.3,18.5
			c14.5,16.3,24.9,43.1,31,79.7c6.4,38.4,6.3,77.3,5.2,103.1L1457.1,1646.7z M1266.1,1645.2h189.6c1.2-25.7,1.2-64.1-5.2-102.1
			c-6.1-36.3-16.4-62.9-30.7-78.9c-11.1-12.5-23.8-18-41.2-18c-26.1,0-46.9,8.7-63.5,26.5l0,0c-18.2,19.6-31.7,50.2-40.1,91
			C1268.2,1596.9,1266.5,1628.7,1266.1,1645.2z M1193.5,1646.7h-187.6v-0.8c2-40.7,11.1-140.2,52.5-182.9
			c12.2-12.6,25.6-18.4,42.4-18.4c14.9,0,27.1,5.4,38.5,16.9c17.9,18.2,32,49.5,41.8,93.1c8.2,36.5,11.3,72.9,12.5,91.3
			L1193.5,1646.7z M1007.5,1645.2H1192c-1.2-18.6-4.3-54.3-12.4-90.2c-9.7-43.3-23.7-74.4-41.4-92.4c-11-11.2-22.9-16.4-37.4-16.4
			c-16.3,0-29.4,5.7-41.3,18C1018.8,1506.1,1009.6,1604.1,1007.5,1645.2L1007.5,1645.2z"/>
		<path class="st0" d="M1000.6,1994.8c-548.2,0-994.2-446-994.2-994.2S452.4,6.4,1000.6,6.4s994.2,446,994.2,994.2
			S1548.8,1994.8,1000.6,1994.8z M1000.6,7.9C453.2,7.9,7.9,453.2,7.9,1000.6s445.3,992.7,992.7,992.7s992.7-445.3,992.7-992.7
			S1547.9,7.9,1000.6,7.9z M1000.6,1922.6c-45.2-0.1-90.4-3.4-135.2-10.1l-0.6-0.1v-685.8h476.5l0.2,0.1l428.6,280.5l-12.2,18.6
			C1585.1,1774.3,1302,1922.6,1000.6,1922.6z M866.2,1911.2c44.5,6.6,89.4,9.9,134.3,9.9c300.9,0,583.5-148.1,756.1-396.1l11.4-17.3
			l-427.2-279.5H866.2V1911.2z M793.4,1898.6l-0.9-0.2c-90.5-21-177.2-55.6-257.3-102.6C377.1,1702.9,250,1565.2,170,1400.3
			c-40.5-83.6-68-172.9-81.5-264.8l-0.1-0.4l0.4-0.3l384.3-274.4v197.1h70.7V809.9l0.3-0.2l413.2-295v92.6
			c0,197.8,160.9,358.7,358.7,358.7s358.7-160.9,358.7-358.7V372.2l1.3,1.4c79.3,85.3,140.9,182.9,183.1,290
			c100.2,255.3,81.3,541.9-51.6,781.8l-0.4,0.7l-0.7-0.4l-444-290.5L832.5,808.4l-18,8.3l-21.2,12L793.4,1898.6z M90,1135.7
			c13.5,91.6,40.9,180.6,81.3,263.9c79.9,164.7,206.7,302.1,364.6,394.9c79.7,46.8,166,81.3,256,102.2V827.8l22-12.5l18.8-8.7
			l0.3,0.2l530.1,346.9h0.9v0.6l442.6,289.6c132.3-239.4,151-525.3,51.1-779.9c-41.9-106.4-102.9-203.4-181.5-288.2v231.4
			c0,198.6-161.6,360.2-360.2,360.2S955.7,805.9,955.7,607.3v-89.7L545.2,810.6v248.3h-73.6V863.2L90,1135.7z M1232.2,1155.3H864.7
			V914.8l1.2,0.8L1232.2,1155.3z M866.2,1153.8h360.9L866.2,917.6V1153.8z M80.1,1054.1l-0.1-1.3c-1-17.5-1.5-35-1.5-52.2
			c0-258.4,110-506.8,301.7-681.5l0.2-0.2h576.8v109l-0.3,0.2L543.7,723.1V548.8h187.9v-70.6H285.2v70.6h187.9v224.7l-0.3,0.2
			L80.1,1054.1z M381,320.3C189.7,494.7,80,742.6,80,1000.6c0,16.7,0.5,33.8,1.4,50.8l390.2-278.6V550.3H283.7v-73.6h449.4v73.6
			H545.2v169.9l410.5-293.1V320.3H381z M1315.9,895.4c-158.8,0-288-129.2-288-288.1V318.8H1604v288.5
			C1604,766.1,1474.7,895.4,1315.9,895.4z M1029.3,320.3v287c0,158,128.6,286.6,286.5,286.6s286.6-128.5,286.6-286.6v-287H1029.3z
			 M1533,248.2H468.2l1.9-1.4C625.9,136.7,809.3,78.5,1000.6,78.5s374.7,58.2,530.5,168.3L1533,248.2z M472.9,246.7h1055.4
			C1373.1,137.6,1190.7,80,1000.6,80S628,137.6,472.9,246.7z"/>
		<path class="st0" d="M503.9,1637.5c-99.9,0-181.2-81.3-181.2-181.2v-339.5h73.6v339.5c0.6,59.4,49.2,107.1,108.6,106.6
			c58.6-0.6,106-47.9,106.6-106.6v-339.5h73.6v339.5C685.1,1556.2,603.8,1637.5,503.9,1637.5z M324.1,1118.2v338
			c0,99.1,80.6,179.7,179.7,179.7s179.7-80.6,179.7-179.7v-338H613v338c-0.6,60.3-49.9,108.6-110.1,108.1
			c-59.4-0.6-107.5-48.6-108.1-108.1v-338H324.1z"/>
	</g>
</g>
</svg>
