<svg xmlns="http://www.w3.org/2000/svg" viewBox="0 0 2001.5 2001.5"><g id="Lager_2" data-name="Lager 2"><g id="Lager_1-2" data-name="Lager 1"><path d="M934.91,1724.1h-.73l-1.11-35.91c-.23-7.78-4.69-191.51,73.76-272.42,26.12-27,58-40.62,94.83-40.62,34.78,0,65.23,13,90.5,38.64,14.82,15.06,27.82,35.08,38.64,59.52,9.22-18.58,20.1-34.65,32.36-47.81,31.07-33.41,70.82-50.35,118.16-50.35,38.45,0,72,14.91,97,43.11,32,36.15,50.32,93.83,54.38,171.45a658.27,658.27,0,0,1-2.71,101.5l-4,32.57-24.34.32Zm.73-1.5h566l23-.31,3.8-31.26a655.71,655.71,0,0,0,2.7-101.24c-4-77.27-22.21-134.64-54-170.53-24.7-27.88-57.84-42.61-95.85-42.61-46.9,0-86.29,16.78-117.06,49.87-12.48,13.39-23.52,29.84-32.82,48.89l-.72,1.46-.64-1.49c-10.88-24.93-24-45.3-39-60.54-25-25.34-55.07-38.19-89.43-38.19-36.38,0-67.92,13.51-93.75,40.16-78,80.47-73.57,263.58-73.34,271.33Zm524.68-71.45H1266.47l0-.76c.37-16.44,2-49.09,9.09-83.16,8.54-41.34,22.26-72.39,40.77-92.28h0c17-18.28,38.25-27.17,65-27.17,18,0,31.16,5.75,42.6,18.64,14.57,16.41,25.08,43.4,31.23,80.22,6.46,38.7,6.39,77.81,5.2,103.8Zm-192.32-1.5h190.88c1.16-25.91,1.17-64.54-5.21-102.76-6.1-36.54-16.49-63.27-30.88-79.47-11.13-12.55-23.92-18.14-41.47-18.14-26.28,0-47.17,8.73-63.87,26.69h0c-18.32,19.69-31.91,50.49-40.4,91.56C1270.14,1601,1268.41,1633,1268,1649.65Zm-73,1.5H1006.15l0-.78c2-41,11.19-141.17,52.82-184.06,12.25-12.64,25.8-18.53,42.65-18.53,15,0,27.3,5.39,38.71,17,18.05,18.31,32.2,49.85,42.07,93.75,8.27,36.76,11.41,73.34,12.55,91.88Zm-187.31-1.5h185.72c-1.18-18.72-4.35-54.7-12.47-90.84-9.81-43.63-23.83-74.92-41.68-93-11.1-11.27-23.07-16.51-37.64-16.51-16.42,0-29.63,5.74-41.58,18.08C1019.08,1509.61,1009.81,1608.29,1007.73,1649.65Z"/><path d="M1000.75,2001.5C448.94,2001.5,0,1552.56,0,1000.74S448.94,0,1000.75,0,2001.5,448.93,2001.5,1000.74,1552.57,2001.5,1000.75,2001.5Zm0-2000C449.76,1.5,1.5,449.76,1.5,1000.74S449.76,2000,1000.75,2000,2000,1551.73,2000,1000.74,1551.74,1.5,1000.75,1.5Zm0,1927.37a936.25,936.25,0,0,1-136.07-10.13l-.64-.09V1228.31H1343.7l.19.12,431.43,282.33-12.26,18.73C1589.11,1779.57,1304.13,1928.87,1000.75,1928.87Zm-135.21-11.52a934.27,934.27,0,0,0,135.21,10c302.87,0,587.39-149.07,761.07-398.72l11.43-17.46-430-281.38H865.54Zm-73.35-12.63-.92-.21a922.36,922.36,0,0,1-259-103.3,935.15,935.15,0,0,1-367.6-398.14,918.41,918.41,0,0,1-82.06-266.53l-.07-.45.38-.27L469.79,859.6V1058h71.12V808.79l.31-.23L957.1,511.64v93.25c0,199.1,162,361.09,361.06,361.09s361.08-162,361.08-361.09V368.19l1.3,1.39c79.81,85.85,141.81,184.07,184.28,291.93a925.9,925.9,0,0,1-51.9,787l-.39.71-.67-.44-446.95-292.46-533.35-349-18.08,8.34-21.29,12.08Zm-708-767.95A916.77,916.77,0,0,0,166,1402.42a933.56,933.56,0,0,0,367,397.5,920.66,920.66,0,0,0,257.65,102.91V826.88l22.11-12.54,18.88-8.72.35.23L1365.55,1155h.91v.6L1812,1447.1a924.38,924.38,0,0,0,51.42-785C1821.26,555,1759.8,457.39,1680.74,372V604.89c0,199.93-162.65,362.59-362.58,362.59S955.6,804.82,955.6,604.89V514.55l-413.19,295v249.89H468.29V862.52Zm1149.73,19.69H864v-242l1.16.76ZM865.54,1155h363.33L865.54,917.2ZM74.21,1054.65l-.08-1.35c-1-17.58-1.5-35.26-1.5-52.56,0-260.14,110.68-510.19,303.68-686l.21-.2H957.1V424.23l-.31.22-415.88,297V546H730V474.93H280.66V546H469.79V772.2l-.31.22ZM377.1,316c-192.55,175.56-303,425.12-303,684.74,0,16.83.48,34,1.43,51.11L468.29,771.43V547.54H279.16V473.43H731.52v74.11H542.41v171l413.19-295V316Zm941.06,578.85c-159.87,0-289.94-130.08-289.94-290V314.5h579.9V604.89C1608.12,764.77,1478.05,894.85,1318.16,894.85ZM1029.72,316V604.89c0,159.06,129.4,288.46,288.44,288.46S1606.62,764,1606.62,604.89V316Zm507-72.6H464.83l1.93-1.36c156.83-110.83,341.48-169.41,534-169.41s377.16,58.58,534,169.41ZM469.56,241.9H1531.94C1375.78,132.13,1192.17,74.13,1000.75,74.13S625.72,132.13,469.56,241.9Z"/><path d="M500.78,1641.84c-100.59,0-182.42-81.84-182.42-182.43V1117.66h74.11v341.75a108.32,108.32,0,0,0,216.63,0V1117.66h74.11v341.75C683.21,1560,601.38,1641.84,500.78,1641.84ZM319.86,1119.16v340.25c0,99.77,81.16,180.93,180.92,180.93s180.93-81.16,180.93-180.93V1119.16H610.6v340.25a109.82,109.82,0,0,1-219.63,0V1119.16Z"/></g></g></svg>