<svg xmlns="http://www.w3.org/2000/svg" viewBox="0 0 2000 2000"><g id="Lager_2" data-name="Lager 2"><g id="Lager_1-2" data-name="Lager 1"><path d="M1230,1474.34c-10.93-25.07-24-45.45-39.14-60.77-25.12-25.5-55.39-38.43-90-38.43-36.59,0-68.3,13.59-94.29,40.4-78.39,80.86-73.78,264.08-73.55,271.87l1.09,35.19h566.75l23.68-.32,3.88-31.91a656.59,656.59,0,0,0,2.71-101.37c-4-77.47-22.29-135-54.19-171-24.86-28-58.19-42.87-96.42-42.87-47.11,0-86.68,16.85-117.61,50.12C1250.41,1438.72,1239.37,1455.17,1230,1474.34Zm-223.82,175.31c2-41.43,11.23-140.93,52.6-183.57,12.11-12.49,25.49-18.3,42.12-18.3,14.8,0,26.93,5.33,38.18,16.73,41.57,42.17,51.94,145.15,54.41,185.14Zm310-174.94c16.83-18.11,37.89-26.93,64.42-26.93,17.78,0,30.75,5.67,42,18.39,31.4,35.36,39.32,116.41,36.24,183.48H1266.49C1267.26,1615.53,1273.36,1520.69,1316.15,1474.71Z"/><path d="M1000,0C448.59,0,0,448.59,0,1000S448.59,2000,1000,2000s1000-448.59,1000-1000S1551.41,0,1000,0Zm0,72.63c192.85,0,376.74,58.45,533.56,169.27H466.44C623.26,131.08,807.15,72.63,1000,72.63ZM1606.62,314.5V604.14c0,159.47-129.75,289.21-289.21,289.21s-289.19-129.74-289.19-289.21V314.5ZM72.63,1000c0-260.1,110.55-509.74,303.43-685.49H955.6V423.09L540.91,719.2V546H730V473.43H279.16V546H468.29v225L74.14,1052.5C73.13,1034.88,72.63,1017.29,72.63,1000Zm1689.06,528.32c-173.82,249.9-458.56,399.06-761.69,399.06a934.94,934.94,0,0,1-136-10.12V1228.31h478.68l430.81,281.91ZM864,1155V915.06l366.6,239.9Zm500.92.25V1155h-.39L830.87,805.73l-18.45,8.51-21.73,12.32V1903c-369.57-85.66-652.78-391.74-708.07-767.35L468.29,860.31V1058h72.62V808.42L955.6,512.34v91.8C955.6,803.67,1117.91,966,1317.41,966s361.83-162.31,361.83-361.84V369.34C1839.41,541.62,1927.37,764.7,1927.37,1000a923.94,923.94,0,0,1-115.85,447.43Z"/><path d="M609.1,1458.66a109.07,109.07,0,0,1-218.13,0v-341H318.36v341c0,100.2,81.5,181.68,181.68,181.68s181.67-81.48,181.67-181.68v-341H609.1Z"/></g></g></svg>