<?xml version="1.0" standalone="no"?>
<!DOCTYPE svg PUBLIC "-//W3C//DTD SVG 20010904//EN"
 "http://www.w3.org/TR/2001/REC-SVG-20010904/DTD/svg10.dtd">
<svg version="1.0" xmlns="http://www.w3.org/2000/svg"
 width="700.000000pt" height="700.000000pt" viewBox="0 0 700.000000 700.000000"
 preserveAspectRatio="xMidYMid meet">
<metadata>
Created by potrace 1.14, written by Peter Selinger 2001-2017
</metadata>
<g transform="translate(0.000000,700.000000) scale(0.100000,-0.100000)"
fill="#000000" stroke="none">
<path d="M3278 6995 c-1 -1 -42 -5 -89 -9 -47 -4 -95 -8 -105 -10 -10 -2 -46
-7 -79 -12 -33 -4 -62 -8 -65 -9 -3 0 -27 -5 -55 -10 -27 -4 -54 -9 -60 -11
-5 -1 -26 -5 -45 -9 -69 -12 -237 -57 -345 -92 -434 -139 -846 -368 -1200
-667 -139 -117 -408 -397 -490 -510 -16 -23 -32 -43 -35 -46 -3 -3 -28 -36
-56 -75 -311 -436 -516 -926 -604 -1449 -22 -131 -24 -149 -37 -286 -15 -163
-8 -589 12 -711 2 -13 6 -46 10 -74 9 -76 16 -116 25 -160 5 -22 11 -53 14
-70 40 -220 151 -548 267 -790 214 -448 512 -832 915 -1180 182 -157 491 -355
739 -474 224 -108 582 -229 781 -265 15 -3 50 -10 78 -15 62 -13 96 -18 155
-27 25 -3 57 -8 71 -10 124 -19 557 -26 725 -11 654 59 1263 293 1790 687 152
114 216 169 344 294 83 81 121 122 252 270 147 168 351 485 468 731 156 326
276 739 317 1090 4 33 9 76 11 95 8 70 10 517 3 595 -15 158 -21 210 -25 225
-2 8 -7 35 -10 60 -51 361 -206 801 -408 1160 -256 452 -639 869 -1074 1169
-152 105 -415 251 -583 324 -256 110 -580 205 -835 243 -27 4 -57 9 -65 10 -8
2 -44 6 -80 10 -36 3 -78 8 -95 11 -32 5 -531 13 -537 8z m472 -259 c125 -11
145 -13 260 -31 454 -72 874 -235 1263 -489 48 -31 87 -58 87 -60 0 -1 -837
-2 -1860 -2 -1023 0 -1860 1 -1860 2 0 6 171 115 265 169 110 63 235 124 371
181 97 40 337 121 386 129 17 3 35 8 39 11 14 8 292 62 359 69 36 4 68 9 71
10 3 2 59 7 125 11 65 3 120 7 121 8 5 5 294 -2 373 -8z m-405 -1028 l0 -188
-255 -182 c-140 -101 -268 -192 -285 -204 -47 -32 -438 -312 -457 -326 -9 -7
-40 -30 -70 -51 -29 -21 -125 -89 -213 -152 -88 -63 -163 -115 -166 -115 -3 0
-6 134 -5 298 l1 297 330 3 331 2 -1 119 c0 66 -4 123 -8 127 -12 12 -1567 11
-1568 -1 -1 -15 -1 -218 0 -232 1 -10 74 -13 331 -13 l330 0 -1 -394 -1 -395
-529 -378 c-291 -208 -600 -429 -687 -491 l-157 -113 -5 33 c-10 64 2 487 15
508 2 3 6 33 9 67 3 34 13 99 22 145 9 46 18 94 20 108 9 46 63 244 92 335
127 388 352 786 625 1103 52 61 55 64 170 180 l102 102 1015 -2 1015 -3 0
-187z m2276 170 c4 -120 0 -1066 -5 -1108 -19 -158 -71 -302 -160 -440 -57
-87 -189 -222 -275 -280 -125 -84 -298 -151 -431 -167 -322 -39 -626 63 -849
285 -172 171 -265 364 -295 612 -5 35 -9 698 -6 1058 l0 62 1010 0 1010 0 1
-22z m415 -358 c85 -103 222 -302 283 -410 189 -331 331 -738 386 -1105 9 -60
18 -121 21 -135 22 -134 22 -592 -1 -731 -2 -13 -6 -46 -10 -74 -10 -80 -34
-215 -50 -280 -9 -33 -17 -70 -20 -83 -8 -42 -57 -196 -101 -320 -57 -156
-175 -412 -200 -433 -8 -7 -41 10 -115 59 -108 70 -493 322 -914 597 -135 88
-444 291 -687 450 -243 160 -446 292 -452 294 -6 2 -13 7 -16 10 -6 7 -121 84
-135 90 -5 2 -41 25 -80 51 -38 26 -288 190 -554 364 l-483 316 -64 -31 c-36
-18 -67 -36 -71 -42 -3 -5 -5 -855 -5 -1888 0 -1034 -1 -1879 -2 -1879 -19 0
-283 80 -381 115 -159 57 -452 200 -598 292 -781 493 -1309 1265 -1476 2158
-12 61 -21 112 -21 115 0 3 32 28 70 55 39 28 149 106 244 175 96 69 182 131
192 138 11 7 205 145 432 307 l412 294 -1 -340 c0 -187 2 -343 5 -346 3 -4 60
-7 126 -7 l120 -1 1 30 c0 16 1 213 1 438 l1 407 716 511 c394 281 720 513
726 515 6 3 10 -66 11 -198 0 -112 3 -225 6 -253 23 -192 93 -389 192 -539 26
-38 46 -70 46 -72 0 -5 77 -91 130 -145 184 -186 460 -324 710 -357 71 -9 289
-9 360 0 82 11 205 44 292 79 69 28 245 122 258 138 3 3 23 19 45 36 139 102
295 296 373 465 41 87 72 184 94 284 20 94 22 133 24 581 2 264 3 482 4 485 1
7 53 -53 156 -180z m-2783 -1872 c119 -79 403 -264 631 -413 227 -148 412
-272 410 -274 -6 -6 -1264 -7 -1265 -1 -5 18 -3 830 1 830 3 0 104 -64 223
-142z m1635 -1070 c103 -67 242 -159 309 -203 68 -44 189 -123 270 -177 250
-163 594 -388 666 -435 37 -25 67 -48 67 -52 0 -29 -217 -307 -339 -435 -223
-232 -411 -384 -680 -550 -233 -144 -539 -276 -810 -351 -139 -38 -344 -81
-434 -90 -32 -4 -68 -8 -80 -11 -141 -27 -637 -20 -797 12 -8 1 -20 3 -25 3
-7 1 -10 389 -10 1206 l0 1205 838 0 838 0 187 -122z"/>
<path d="M1115 2448 c2 -354 5 -656 9 -673 68 -307 332 -520 636 -514 305 6
573 237 618 534 3 22 6 321 7 665 l0 625 -127 3 -127 3 -3 -643 -3 -643 -31
-66 c-139 -293 -549 -294 -687 -1 l-32 67 -3 643 -2 642 -128 0 -128 0 1 -642z"/>
<path d="M3770 2178 c-332 -51 -523 -496 -501 -1170 l1 -38 1029 0 c567 0
1032 3 1034 8 13 20 27 201 27 342 -1 357 -66 585 -210 731 -94 95 -172 129
-310 134 -201 6 -394 -103 -501 -283 l-36 -61 -31 62 c-104 208 -287 308 -502
275z m171 -271 c68 -41 115 -113 158 -242 43 -128 81 -356 72 -430 -1 -6 -111
-9 -313 -8 -172 1 -318 2 -325 2 -11 1 -11 28 2 151 3 30 8 62 10 70 2 8 6 31
9 50 24 160 105 340 176 390 66 47 152 54 211 17z m972 9 c79 -32 151 -166
173 -321 3 -16 7 -43 10 -60 3 -16 7 -91 9 -166 4 -103 2 -138 -8 -141 -6 -2
-158 -3 -337 -3 l-325 1 0 34 c0 32 5 89 19 197 31 242 141 420 286 464 41 12
138 10 173 -5z"/>
</g>
</svg>
